<svg width="50.611816" height="21.000122" viewBox="0 0 50.6118 21.0001" fill="none" xmlns="http://www.w3.org/2000/svg" xmlns:xlink="http://www.w3.org/1999/xlink">
	<desc>
			Created with Pixso.
	</desc>
	<defs/>
	<path id="Fill 3" d="M32.44 0L32.44 20.97L29 20.97L20.6 6.45L20.6 20.97L17.2 20.97L17.2 0L20.6 0L29.05 14.62L29.05 0L32.44 0ZM47.6 10.05C47.76 9.97 47.91 9.88 48.06 9.79C48.78 9.33 49.33 8.74 49.69 8.03C50.06 7.31 50.24 6.53 50.24 5.67Q50.24 4.2 49.81 3.14C49.53 2.42 49.12 1.82 48.58 1.36C48.04 0.9 47.38 0.56 46.6 0.34C45.82 0.11 44.95 0 43.96 0L35.75 0L35.75 20.97L44.32 20.97Q46.31 20.97 47.7 20.28C48.63 19.81 49.35 19.12 49.85 18.22C50.36 17.31 50.61 16.18 50.61 14.85C50.61 13.99 50.46 13.19 50.16 12.44C49.86 11.69 49.39 11.08 48.75 10.61C48.42 10.36 48.03 10.17 47.6 10.05ZM7.89 0.02L0 0.02L0 21L3.51 21L3.51 12.94L7.91 12.94L11.34 21L15.1 21L15.1 20.81L11.21 12.05C11.72 11.8 12.17 11.49 12.57 11.13C13.16 10.58 13.6 9.91 13.91 9.11C14.23 8.31 14.39 7.39 14.39 6.34C14.39 4.96 14.14 3.8 13.62 2.87C13.12 1.93 12.39 1.22 11.42 0.74C10.46 0.26 9.28 0.02 7.89 0.02ZM43.95 8.84Q44.83 8.84 45.45 8.5Q45.71 8.35 45.91 8.16Q46.21 7.88 46.39 7.49C46.62 7.04 46.73 6.51 46.73 5.89C46.73 5.2 46.63 4.63 46.44 4.2C46.24 3.76 45.94 3.44 45.52 3.24C45.12 3.03 44.6 2.93 43.96 2.93L39.27 2.93L39.27 8.84L43.95 8.84ZM3.51 2.96L3.51 10L7.8 10C8.49 10 9.06 9.85 9.51 9.56C9.97 9.26 10.3 8.85 10.53 8.32Q10.87 7.52 10.87 6.52C10.87 5.8 10.77 5.17 10.57 4.64C10.37 4.11 10.05 3.69 9.61 3.4Q8.96 2.96 7.89 2.96L3.51 2.96ZM39.27 11.52L39.27 18.05L44.32 18.05C44.95 18.05 45.47 17.91 45.87 17.64C46.28 17.37 46.58 17 46.78 16.52C46.99 16.04 47.09 15.48 47.09 14.83C47.09 14.16 47 13.58 46.83 13.08C46.65 12.58 46.37 12.19 45.99 11.92C45.6 11.66 45.09 11.52 44.45 11.52L39.27 11.52Z" fill="#0046E2" fill-opacity="1.000000" fill-rule="evenodd"/>
</svg>
